<svg preserveAspectRatio="none" overflow="visible" style="display: block;" width="66.145" height="78.1828" viewBox="0 0 66.145 78.1828" fill="none" xmlns="http://www.w3.org/2000/svg">
<g id="Cube 1">
<path id="Sides" d="M0.587726 19.3479L0.662955 18.8778L0.907449 18.4264L1.28359 18.0126L1.80079 17.6553L30.1433 1.293L30.7733 0.992082L31.488 0.766395L32.2685 0.634744L33.0772 0.587726L33.8859 0.634744L34.657 0.766395L35.3811 0.992082L36.0017 1.293L64.3442 17.6553L64.8614 18.0126L65.247 18.4264L65.4821 18.8778L65.5573 19.3479V58.8431L65.4821 59.3039L65.247 59.7553L64.8614 60.169L64.3442 60.5358L36.0017 76.8981L35.3811 77.1896L34.657 77.4153L33.8859 77.5469L33.0772 77.5939L32.2685 77.5469L31.488 77.4153L30.7733 77.1896L30.1433 76.8981L1.80079 60.5358L1.28359 60.169L0.907449 59.7553L0.662955 59.3039L0.587726 58.8431V19.3479Z" fill="#EFEDE8" stroke="#A29E95" stroke-width="1.17545" stroke-linecap="round" stroke-linejoin="round"/>
<path id="Top" d="M64.3442 17.6553L64.8614 18.0126L65.247 18.4264L65.4821 18.8778L65.5573 19.3479L65.4821 19.8087L65.247 20.2601L64.8614 20.6738L64.3442 21.0406L36.0017 37.4029L35.3811 37.6944L34.657 37.9201L33.8859 38.0517L33.0772 38.0987L32.2685 38.0517L31.488 37.9201L30.7733 37.6944L30.1433 37.4029L1.80079 21.0406L1.28359 20.6738L0.907449 20.2601L0.662955 19.8087L0.587726 19.3479L0.662955 18.8778L0.907449 18.4264L1.28359 18.0126L1.80079 17.6553L30.1433 1.293L30.7733 0.992082L31.488 0.766395L32.2685 0.634744L33.0772 0.587726L33.8859 0.634744L34.657 0.766395L35.3811 0.992082L36.0017 1.293L64.3442 17.6553Z" fill="white" stroke="#A29E95" stroke-width="1.17545" stroke-linecap="round" stroke-linejoin="round"/>
<path id="Front edge" d="M33.0743 77.595V38.0999" stroke="#A29E95" stroke-width="1.17545" stroke-linecap="round" stroke-linejoin="round"/>
</g>
</svg>
